<svg width="149" height="42" viewBox="0 0 149 42" fill="none" xmlns="http://www.w3.org/2000/svg">
<path d="M128.848 35.256C128.848 36.3606 129.743 37.256 130.848 37.256H134.752C135.882 37.256 136.929 36.8917 137.805 36.1681C138.791 35.3788 139.312 34.2709 139.312 33.016V24.1778L146.646 8.38644C146.934 7.76708 146.885 7.04377 146.518 6.4681C146.151 5.89244 145.515 5.54401 144.832 5.54401H138.016C137.199 5.54401 136.464 6.04077 136.16 6.7988L134.099 11.9321L131.959 6.77725C131.649 6.03064 130.92 5.54401 130.112 5.54401H123.328C122.645 5.54401 122.009 5.89244 121.642 6.4681C121.275 7.04377 121.226 7.76708 121.514 8.38644L128.848 24.1778V35.256Z" fill="white" stroke="#14213D" stroke-width="4" stroke-linejoin="round"/>
<path d="M125.56 18.744C125.56 17.6394 124.665 16.744 123.56 16.744H115.64V14.536H123.4C124.26 14.536 125.295 14.3511 126.112 13.6088C127.02 12.8049 127.256 11.6929 127.256 10.776V7.54401C127.256 6.43944 126.361 5.54401 125.256 5.54401H107.144C106.039 5.54401 105.144 6.43944 105.144 7.54401V33.048C105.144 34.1037 105.427 35.2516 106.326 36.1142C107.195 36.9703 108.32 37.256 109.384 37.256H123.016C124.08 37.256 125.205 36.9703 126.074 36.1142C126.973 35.2516 127.256 34.1037 127.256 33.048V30.264C127.256 29.1594 126.361 28.264 125.256 28.264H115.64V25.8H121.704C122.564 25.8 123.599 25.6151 124.416 24.8728C125.324 24.069 125.56 22.9569 125.56 22.04V18.744Z" fill="white" stroke="#14213D" stroke-width="4" stroke-linejoin="round"/>
<path d="M70.144 5.54401C69.0394 5.54401 68.144 6.43944 68.144 7.54401V33.048C68.144 34.1037 68.4268 35.2516 69.3259 36.1142C70.1948 36.9703 71.3203 37.256 72.384 37.256H85.792C86.8557 37.256 87.9811 36.9703 88.8501 36.1142C89.7492 35.2516 90.032 34.1037 90.032 33.048V30.264C90.032 29.1594 89.1366 28.264 88.032 28.264H78.64V7.54401C78.64 6.43944 77.7446 5.54401 76.64 5.54401H70.144Z" fill="white" stroke="#14213D" stroke-width="4" stroke-linejoin="round"/>
<path d="M98.9224 32.8355L97.47 28.8451L104.312 34.3582C104.858 34.7975 105.593 34.9197 106.251 34.6802L112.927 32.2504C113.61 32.0019 114.104 31.4024 114.218 30.6846C114.332 29.9668 114.048 29.2437 113.475 28.7959L100.82 18.8943L104.109 5.01032C104.279 4.2948 104.042 3.54394 103.493 3.05511C102.944 2.56627 102.17 2.41831 101.479 2.66981L94.6233 5.16519C93.9707 5.40273 93.488 5.96184 93.3482 6.64216L91.9198 13.5962L90.2104 8.89969C89.8327 7.86174 88.685 7.32656 87.647 7.70435L81.5428 9.92611C80.5048 10.3039 79.9696 11.4516 80.3474 12.4895L89.8255 38.5303C90.0069 39.0287 90.3789 39.4347 90.8596 39.6589C91.3404 39.883 91.8905 39.9071 92.3889 39.7256L96.0875 38.3795C97.1494 37.993 98.0082 37.2927 98.5848 36.3128C99.2407 35.2341 99.3516 34.0148 98.9224 32.8355Z" fill="#FCA311" stroke="#14213D" stroke-width="4" stroke-linejoin="round"/>
<path d="M55.144 5.54401C54.0394 5.54401 53.144 6.43944 53.144 7.54401V33.048C53.144 34.1037 53.4268 35.2516 54.3259 36.1142C55.1949 36.9703 56.3203 37.256 57.384 37.256H70.792C71.8557 37.256 72.9811 36.9703 73.8501 36.1142C74.7492 35.2516 75.032 34.1037 75.032 33.048V30.264C75.032 29.1594 74.1366 28.264 73.032 28.264H63.64V7.54401C63.64 6.43944 62.7446 5.54401 61.64 5.54401H55.144Z" fill="white" stroke="#14213D" stroke-width="4" stroke-linejoin="round"/>
<path d="M52.56 18.744C52.56 17.6394 51.6646 16.744 50.56 16.744H42.64V14.536H50.4C51.2603 14.536 52.2952 14.3511 53.1117 13.6088C54.0198 12.8049 54.256 11.6929 54.256 10.776V7.54401C54.256 6.43944 53.3606 5.54401 52.256 5.54401H34.144C33.0394 5.54401 32.144 6.43944 32.144 7.54401V33.048C32.144 34.1037 32.4268 35.2516 33.3259 36.1142C34.1949 36.9703 35.3203 37.256 36.384 37.256H50.016C51.0797 37.256 52.2051 36.9703 53.0741 36.1142C53.9732 35.2516 54.256 34.1037 54.256 33.048V30.264C54.256 29.1594 53.3606 28.264 52.256 28.264H42.64V25.8H48.704C49.5642 25.8 50.5992 25.6151 51.4156 24.8728C52.3238 24.069 52.56 22.9569 52.56 22.04V18.744Z" fill="white" stroke="#14213D" stroke-width="4" stroke-linejoin="round"/>
<path d="M14.4327 13.5498L13.0683 7.12834C12.8721 6.20459 12.0564 5.54401 11.112 5.54401H4.36C3.7466 5.54401 3.16713 5.82549 2.78793 6.30764C2.40874 6.78979 2.27177 7.41928 2.41635 8.0154L9.16835 35.8554C9.38589 36.7524 10.189 37.384 11.112 37.384H14.44C15.4574 37.384 16.4361 37.1278 17.3025 36.5618C18.3076 35.9437 18.9398 35.0012 19.2239 33.9021C19.2241 33.9013 19.2244 33.9006 19.2246 33.8998L20.6132 28.5623L22.5205 35.8879C22.7499 36.7691 23.5455 37.384 24.456 37.384H27.752C28.7772 37.384 29.77 37.1343 30.6467 36.5616C31.6803 35.9255 32.2969 34.9426 32.5483 33.8205L38.8155 8.01603C38.9603 7.41985 38.8235 6.7902 38.4443 6.30789C38.0651 5.82559 37.4855 5.54401 36.872 5.54401H30.152C29.2104 5.54401 28.3964 6.20074 28.1972 7.121L26.8097 13.5327L25.1795 7.05583C24.9558 6.16701 24.1565 5.54401 23.24 5.54401H17.992C17.0739 5.54401 16.2737 6.16914 16.0515 7.05998L14.4327 13.5498Z" fill="white" stroke="#14213D" stroke-width="4" stroke-linejoin="round"/>
</svg>
